<svg version="1.0" xmlns="http://www.w3.org/2000/svg" width="420px" height="90px">
<g>
	<path fill="#DD0000" d="M0.2,1.147v38.557h24.698c16.154,0,24.526-6.769,24.526-19.247c0-12.483-8.423-19.311-24.526-19.311H0.2z
		 M15.134,10.693h7.416c7.465,0,10.827,2.561,10.827,9.389c0,6.932-3.417,9.384-10.827,9.384h-7.416V10.693z"/>
	<polygon fill="#DD0000" points="51.718,39.705 93.801,39.705 93.801,29.79 66.653,29.79 66.653,24.723 87.614,24.723 
		87.614,15.229 66.653,15.229 66.653,10.641 92.518,10.641 92.518,1.205 51.718,1.205 	"/>
	<path fill="#DD0000" d="M94.867,27.978c0.102,8.155,7.786,12.905,22.396,12.905c17.709,0,26.187-4.051,26.187-13.707
		c0-6.349-4.213-10.028-12.691-11.254l-13.6-1.916c-3.84-0.537-5.708-1.016-5.708-2.719c0-1.496,1.868-2.562,5.385-2.562
		c4.64,0,7.146,1.275,7.52,3.682h17.334c-0.643-8.593-8.532-12.218-24.21-12.218c-15.043,0-22.188,3.579-22.188,12.37
		c0,6.457,4.691,10.347,13.918,11.472l11.145,1.385c3.574,0.427,5.334,1.391,5.334,3.041c0,1.865-2.022,2.776-6.028,2.776
		c-4.101,0-6.449-1.234-6.717-3.255H94.867z"/>
	<path fill="#DD0000" d="M145.475,39.705h14.933V26.163h13.869c11.041,0,17.066-4.637,17.066-12.479
		c0-7.839-6.026-12.479-17.066-12.479h-28.802V39.705z M168.569,9.469c4.48,0,6.447,0.854,6.447,4.162
		c0,3.306-1.967,4.155-6.447,4.155h-8.162V9.469H168.569z"/>
	<polygon fill="#DD0000" points="192.942,39.705 235.017,39.705 235.017,29.79 207.872,29.79 207.872,24.723 228.828,24.723 
		228.828,15.229 207.872,15.229 207.872,10.641 233.738,10.641 233.738,1.205 192.942,1.205 	"/>
	<path fill="#DD0000" d="M252.299,17.845v-6.881h8.316c4.375,0,6.566,0.425,6.566,3.356c0,2.778-2.088,3.524-6.191,3.524H252.299z
		 M266.487,1.205h-29.339v38.5h15.15V27.973h8.9c3.688,0,5.078,0.957,5.39,3.843c0.374,3.255-0.155,6.025,1.016,7.889h16.584
		v-0.583c-1.809-0.905-1.809-4.051-2.08-9.603c-0.214-4.369-0.693-6.504-4.802-8.212c4.005-1.542,6.348-5.225,6.348-9.754
		c0-3.74-1.546-6.672-4.425-8.379C276.771,1.684,272.562,1.205,266.487,1.205"/>
	<path fill="#DD0000" d="M285.582,39.705h15.991l1.384-3.78h16.376l1.282,3.78h16.151l-15.571-38.5h-18.929L285.582,39.705z
		 M306.48,26.428l4.911-13.542l4.635,13.542H306.48z"/>
	<polygon fill="#DD0000" points="343.174,39.705 358.108,39.705 358.108,10.964 372.082,10.964 372.082,1.205 329.259,1.205 
		329.259,10.964 343.174,10.964 	"/>
	<polygon fill="#DD0000" points="374.265,39.705 416.341,39.705 416.341,29.79 389.2,29.79 389.2,24.723 410.155,24.723 
		410.155,15.229 389.2,15.229 389.2,10.641 415.066,10.641 415.066,1.205 374.265,1.205 	"/>
	<polygon fill="#000000" points="21.921,41.67 21.921,43.266 15.927,43.266 15.927,63.633 34.742,63.633 34.742,43.266 
		28.751,43.266 28.751,41.67 50.14,41.67 50.14,43.266 44.149,43.266 44.149,86.441 50.14,86.441 50.14,88.033 28.751,88.033 
		28.751,86.441 34.742,86.441 34.742,65.244 15.927,65.244 15.927,86.441 21.921,86.441 21.921,88.033 0.535,88.033 0.535,86.441 
		6.521,86.441 6.521,43.266 0.535,43.266 0.535,41.67 	"/>
	<path fill="#000000" d="M60.784,75.533c0.523,2.967,1.34,5.342,2.445,7.104c1.108,1.756,2.537,2.979,4.297,3.672
		c1.754,0.697,3.854,1.041,6.282,1.041c3.215,0,5.733-0.598,7.558-1.791c1.823-1.193,3.194-2.84,4.105-4.945
		c0.914-2.113,1.486-4.607,1.727-7.484c0.236-2.895,0.355-5.334,0.355-8.727c0-3.031-0.093-5.244-0.292-8.006
		c-0.196-2.754-0.748-5.188-1.66-7.289c-0.914-2.111-2.291-3.775-4.135-5.016c-1.844-1.231-4.403-1.852-7.658-1.852
		c-3.035,0-5.468,0.576-7.292,1.725c-1.829,1.149-3.214,2.764-4.167,4.854c-0.958,2.076-1.587,4.561-1.893,7.416
		C60.153,59.098,60,61.563,60,64.984C60,69.508,60.261,72.557,60.784,75.533 M51.656,54.953c1.497-2.994,3.415-5.547,5.758-7.678
		c2.34-2.127,4.963-3.767,7.875-4.916c2.904-1.155,5.746-1.725,8.519-1.725c2.995,0,5.956,0.565,8.885,1.692
		c2.931,1.127,5.534,2.728,7.809,4.817c2.276,2.084,4.119,4.605,5.531,7.584c1.409,2.965,2.112,6.318,2.112,10.047
		c0,3.262-0.661,6.348-1.988,9.275c-1.322,2.932-3.095,5.506-5.33,7.715c-2.233,2.217-4.816,3.959-7.742,5.24
		c-2.929,1.283-6.022,1.918-9.277,1.918c-3.206,0-6.288-0.625-9.24-1.859c-2.944-1.23-5.538-2.92-7.771-5.074
		c-2.231-2.145-4.028-4.672-5.367-7.582c-1.351-2.91-2.018-6.047-2.018-9.432C49.412,61.289,50.161,57.941,51.656,54.953"/>
	<path fill="#000000" d="M119.245,41.67v1.596h-5.991V71.43c0,2.031,0.096,4.029,0.292,5.961c0.196,1.928,0.655,3.498,1.368,5.021
		c0.716,1.52,1.781,2.742,3.189,3.672c1.411,0.938,3.16,1.258,5.55,1.258c2.339,0,3.465-0.121,5.055-0.67
		c1.582-0.543,2.895-1.248,3.939-2.146c1.042-0.889,1.844-1.889,2.403-2.994c0.568-1.105,0.978-2.057,1.244-3.164
		c0.254-1.107,0.41-2.152,0.452-3.129c0.042-0.975,0.065-1.793,0.065-2.436V43.266h-4.938V41.67h13.023v1.596h-6.058v29.843
		c0,0.693-0.023,1.576-0.066,2.639c-0.041,1.068-0.22,2.178-0.517,3.352c-0.303,1.168-0.761,2.344-1.369,3.51
		c-0.613,1.176-1.5,2.229-2.671,3.15c-1.172,0.936-2.649,1.701-4.427,2.287c-1.78,0.576-3.967,0.877-6.576,0.877
		c-4.21,0-7.593-0.467-10.148-1.398c-2.555-0.93-4.512-2.145-5.873-3.646c-1.365-1.49-2.266-3.203-2.695-5.107
		c-0.431-1.912-0.649-3.84-0.649-5.795v-29.71h-6.051V41.67H119.245z"/>
	<path fill="#000000" d="M145.022,73.18c0.083,0.523,0.24,1.205,0.451,2.047c0.216,0.855,0.533,1.611,0.943,2.586
		c0.41,0.975,0.935,1.975,1.558,2.99c0.632,1.021,1.394,1.969,2.303,2.834c1.001,1.004,1.965,1.611,2.899,2.129
		c0.933,0.52,1.822,0.9,2.67,1.137c0.845,0.242,1.651,0.365,2.409,0.393c0.758,0.018,1.463,0.029,2.113,0.029
		c2.302,0,4.196-0.352,5.67-1.074c1.474-0.709,2.634-1.598,3.483-2.629c0.843-1.041,1.442-1.986,1.788-3.141
		c0.347-1.15,0.525-1.623,0.525-2.488c0-1.609-0.381-2.936-1.143-3.971c-0.757-1.045-1.766-1.914-3.024-2.604
		c-1.26-0.697-2.691-1.279-4.297-1.76c-1.604-0.473-3.251-0.965-4.948-1.459c-1.691-0.504-3.34-1.092-4.941-1.756
		c-1.604-0.682-3.038-1.547-4.3-2.607c-1.254-1.064-2.262-2.373-3.023-3.938c-0.762-1.561-1.137-3.52-1.137-5.863
		c0-1.725,0.388-3.4,1.175-4.998c0.779-1.609,1.867-3.035,3.252-4.271c1.391-1.235,3.052-2.235,4.98-2.995
		c1.934-0.756,4.029-1.143,6.286-1.143c1.433,0,2.688,0.138,3.776,0.392c1.082,0.266,2.041,0.537,2.863,0.819
		c0.828,0.281,1.557,0.549,2.184,0.814c0.629,0.26,1.201,0.391,1.726,0.391c0.605,0,1.007-0.102,1.2-0.298
		c0.196-0.193,0.4-0.554,0.623-1.074h1.045v12.362h-0.854c-0.515-1.516-1.069-2.861-1.656-4.34
		c-0.583-1.471-1.339-2.262-2.245-3.463c-0.917-1.194-2.064-2.159-3.451-2.897c-1.391-0.732-3.148-1.102-5.272-1.102
		c-1.74,0-3.266,0.238-4.593,0.709c-1.325,0.485-2.438,1.108-3.356,1.887c-0.903,0.785-1.599,1.657-2.075,2.61
		c-0.482,0.951-0.721,1.545-0.721,2.539c0,1.518,0.4,2.625,1.203,3.631c0.803,0.998,1.855,1.697,3.16,2.412
		c1.302,0.719,2.791,1.334,4.457,1.863c1.669,0.52,3.384,1.066,5.144,1.629c1.758,0.553,3.471,1.178,5.142,1.852
		c1.669,0.668,3.155,1.523,4.456,2.574c1.302,1.037,2.354,2.295,3.163,3.77c0.802,1.477,1.2,3.291,1.2,5.465
		c0,2.129-0.433,4.137-1.299,6.059c-0.872,1.906-2.101,3.572-3.682,5.004c-1.582,1.434-3.47,2.58-5.662,3.418
		c-2.193,0.844-4.63,1.27-7.321,1.27c-1.344,0-2.678-0.133-4.005-0.385c-1.322-0.27-2.558-0.533-3.705-0.82
		c-1.154-0.285-2.174-0.551-3.061-0.816c-0.89-0.25-1.551-0.385-1.986-0.385c-0.606,0-1.042,0.096-1.302,0.299
		c-0.257,0.189-0.501,0.588-0.716,1.195h-1.053V73.18H145.022z"/>
	<path fill="#000000" d="M386.99,73.18c0.089,0.523,0.236,1.205,0.46,2.047c0.202,0.855,0.521,1.611,0.937,2.586
		c0.414,0.975,0.923,1.975,1.561,2.99c0.62,1.021,1.394,1.969,2.295,2.834c1.004,1.004,1.967,1.611,2.906,2.129
		c0.931,0.52,1.813,0.9,2.667,1.137c0.851,0.242,1.646,0.365,2.408,0.393c0.755,0.018,1.466,0.029,2.111,0.029
		c2.304,0,4.19-0.352,5.674-1.074c1.472-0.709,2.634-1.598,3.479-2.629c0.843-1.041,1.449-1.986,1.79-3.141
		c0.352-1.15,0.52-1.623,0.52-2.488c0-1.609-0.376-2.936-1.138-3.971c-0.756-1.045-1.771-1.914-3.023-2.604
		c-1.265-0.697-2.689-1.279-4.294-1.76c-1.611-0.473-3.262-0.965-4.944-1.459c-1.693-0.504-3.344-1.092-4.954-1.756
		c-1.602-0.682-3.038-1.547-4.294-2.607c-1.258-1.064-2.268-2.373-3.023-3.938c-0.759-1.561-1.137-3.52-1.137-5.863
		c0-1.725,0.387-3.4,1.172-4.998c0.778-1.609,1.867-3.035,3.259-4.271s3.048-2.235,4.981-2.995
		c1.928-0.756,4.023-1.143,6.285-1.143c1.431,0,2.684,0.138,3.775,0.392c1.078,0.266,2.037,0.537,2.861,0.819
		c0.827,0.281,1.554,0.549,2.177,0.814c0.633,0.26,1.206,0.391,1.724,0.391c0.614,0,1.017-0.102,1.214-0.298
		c0.189-0.193,0.392-0.554,0.618-1.074h1.035v12.362h-0.846c-0.514-1.516-1.074-2.861-1.652-4.34
		c-0.586-1.471-1.344-2.262-2.255-3.463c-0.907-1.194-2.054-2.159-3.443-2.897c-1.394-0.732-3.153-1.102-5.278-1.102
		c-1.735,0-3.26,0.238-4.587,0.709c-1.321,0.485-2.441,1.108-3.358,1.887c-0.911,0.785-1.605,1.657-2.078,2.61
		c-0.475,0.951-0.719,1.545-0.719,2.539c0,1.518,0.406,2.625,1.204,3.631c0.803,0.998,1.857,1.697,3.155,2.412
		c1.299,0.719,2.794,1.334,4.462,1.863c1.669,0.52,3.386,1.066,5.143,1.629c1.754,0.553,3.469,1.178,5.136,1.852
		c1.674,0.668,3.157,1.523,4.46,2.574c1.306,1.037,2.362,2.295,3.158,3.77c0.809,1.477,1.207,3.291,1.207,5.465
		c0,2.129-0.431,4.137-1.299,6.059c-0.871,1.906-2.102,3.572-3.679,5.004c-1.585,1.434-3.479,2.58-5.66,3.418
		c-2.198,0.844-4.633,1.27-7.331,1.27c-1.343,0-2.67-0.133-3.997-0.385c-1.328-0.27-2.56-0.533-3.707-0.82
		c-1.152-0.285-2.17-0.551-3.069-0.816c-0.882-0.25-1.546-0.385-1.974-0.385c-0.611,0-1.045,0.096-1.307,0.299
		c-0.257,0.189-0.493,0.588-0.713,1.195h-1.051V73.18H386.99z"/>
	<path fill="#000000" d="M217.659,41.67v11.292h-0.841c-0.221-0.738-0.59-1.686-1.108-2.834c-0.525-1.156-1.248-2.275-2.182-3.354
		c-0.93-1.088-2.265-1.867-3.557-2.551c-1.477-0.791-3.335-0.958-5.459-0.958h-10.353v19.437h3.642c1.61,0,2.967-0.227,4.074-0.68
		c1.107-0.455,2.03-1.107,2.768-1.957c0.736-0.85,1.342-1.863,1.821-3.059c0.473-1.195,0.863-2.523,1.171-4.006h0.843v20.938
		h-0.843c-0.308-1.26-0.657-2.475-1.079-3.646c-0.41-1.178-0.963-2.201-1.656-3.094c-0.693-0.895-1.548-1.6-2.573-2.117
		c-1.023-0.516-2.287-0.779-3.805-0.779h-4.362v22.139h10.671c2.002,0,6.111-0.328,9.673-3.463
		c1.298-1.143,2.274-2.482,3.098-4.111c0.819-1.631,1.449-3.373,1.884-5.244h0.847v14.41h-41.566v-1.592h5.987V43.266h-5.987V41.67
		H217.659z"/>
	<path fill="#000000" d="M380.814,41.67v11.292h-0.842c-0.222-0.738-0.591-1.686-1.109-2.834c-0.514-1.156-1.247-2.275-2.181-3.354
		c-0.93-1.088-2.264-1.72-3.55-2.401c-1.484-0.792-3.342-1.108-5.465-1.108h-10.35v19.437h3.649c1.604,0,2.96-0.227,4.066-0.68
		c1.108-0.455,2.025-1.107,2.767-1.957c0.732-0.85,1.344-1.863,1.822-3.059c0.479-1.195,0.865-2.523,1.172-4.006h0.842v20.938
		h-0.842c-0.307-1.26-0.663-2.475-1.079-3.646c-0.415-1.178-0.958-2.201-1.655-3.094c-0.693-0.895-1.552-1.6-2.574-2.117
		c-1.021-0.516-2.293-0.779-3.811-0.779h-4.357v22.139h10.672c2.002,0,6.105-0.035,9.666-3.15c1.31-1.148,2.275-2.645,3.101-4.271
		c0.826-1.627,1.448-3.377,1.887-5.24h0.842v14.254h-41.563v-1.592h5.983v-43.32h-5.983V41.67H380.814z"/>
	<polygon fill="#000000" points="236.745,41.67 236.745,43.266 231.988,43.266 242.885,76.314 243.006,76.613 249.688,57.498 
		245.599,43.266 242.09,43.266 242.09,41.67 261.551,41.67 261.551,43.266 255.497,43.266 266.295,76.676 266.421,76.676 
		278.616,43.266 273.861,43.266 273.861,41.67 285.83,41.67 285.83,43.266 280.562,43.266 263.83,89.811 261.938,89.811 
		251.266,58.994 251.134,58.994 240.195,89.811 238.309,89.811 222.161,43.266 216.824,43.266 216.824,41.67 	"/>
	<polygon fill="#000000" points="302.752,41.67 302.75,43.249 296.767,43.266 296.767,86.441 302.752,86.441 302.752,88.033 
		281.369,88.033 281.369,86.441 287.359,86.441 287.359,43.266 281.369,43.266 281.369,41.67 	"/>
	<polygon fill="#000000" points="320.643,41.67 320.643,43.266 314.387,43.266 327.031,77.352 340.448,43.122 335.747,43.122 
		335.747,41.67 348.178,41.67 348.178,43.266 342.578,43.266 324.222,89.811 322.336,89.811 304.362,43.266 298.898,43.266 
		298.898,41.67 	"/>
</g>
</svg>
